<svg xmlns="http://www.w3.org/2000/svg" width="40" height="38" fill="none"><defs/><path fill="#3A3A3A" d="M36.9 19.7V1.5c0-.6-.5-1.2-1.2-1.2H4.2C3.5.3 3 1 3 1.5v19.7c-.5 0-1.1.3-1.6.7a3.6 3.6 0 00-.6 5L6 33.3c3.3 3.9 6.8 4.4 12 4.4 4.4 0 6.4 0 10.2-1l3.8-.8c.6.8 1.6 1.4 2.7 1.4h1.9c1.8 0 3.3-1.6 3.3-3.5V23.3c0-2-1.4-3.4-3.1-3.6zm-5.3 2.5l-1.6-.8a9.3 9.3 0 00-8.1-.2c-.7.3-2.3 1.3-3.1 1.2h-5.5a3.3 3.3 0 00-3.2 3.3v.8l-4-4.2c-.2-.3-.4-.5-.7-.6V10H15v4.3c0 .7.5 1.2 1.2 1.2h7.4c.7 0 1.2-.5 1.2-1.2V10h9.7v9.7c-1.3.1-2.5 1.1-2.9 2.5zM17.4 10h5V13h-5V10zm17.1-2.4h-9.7V2.7h9.7v5zm-12-4.9v5h-5.1v-5h5zm-7.5 0v5H5.4v-5H15zm12.8 31.8c-3.6.8-5.7.8-9.7.8-4.9 0-7.2 0-10.2-3.5l-5.3-6.4c-1-1.2.8-2.6 1.8-1.5l4 4.2c1 1.1 2.2 1.7 3.8 1.7H23a1.2 1.2 0 000-2.3H12.4v-1.8c0-.5.4-1 1-1h5.4c1.2.2 3-.9 4-1.3a7 7 0 016.2 0l2.4 1.3v9l-3.6.8zm9.8-.7c0 .6-.4 1.1-1 1.1h-1.8c-.6 0-1-.5-1-1.1V23.3c0-.7.4-1.2 1-1.2h1.9c.5 0 1 .5 1 1.2v10.5z"/></svg>