<svg xmlns="http://www.w3.org/2000/svg" width="36" height="40" fill="none"><defs/><path fill="#3A3A3A" d="M34.5 16a16.5 16.5 0 00-33 0L.4 17.2v8l1.1 1.2v5.4c0 3.2 2.6 5.8 5.8 5.8h1.5A3.5 3.5 0 0012 40h2.4c1.5 0 2.8-1 3.3-2.4h.2c5.7 0 10.4-4 11.5-9.4h3.1l3-3v-8L34.5 16zM18 2.4c7 0 12.8 5 14 11.7h-2.5a11.8 11.8 0 00-23 0H4C5.2 7.4 11 2.4 18 2.4zM27.1 14c-3.8 0-6.5.2-8.7-3l-1-1.6-1 1.7c-1.3 2.4-3.2 3-5.5 3H9a9.4 9.4 0 0118.2 0zM6.2 26H4.4l-1.7-1.7v-6l1.7-1.7h1.8v9.4zm-2.3 6v-3.7h2.6c.4 2.2 1.5 4.2 3 5.9-.3.3-.5.7-.7 1.2H7.3A3.5 3.5 0 014 31.8zm10.6 5.7H12a1.2 1.2 0 010-2.3h2.4a1.2 1.2 0 010 2.3zm13-11.7a9.4 9.4 0 01-9.7 9.4 3.5 3.5 0 00-3.3-2.4h-2.7a9.4 9.4 0 01-3.2-7v-9.4h2.3c2.1 0 4.7-.4 6.6-2.8 2.6 2.8 5.8 2.8 8.6 2.8h1.3v9.4zm5.8-1.7L31.6 26h-1.8v-9.4h1.8l1.7 1.6v6.1z"/></svg>