<svg xmlns="http://www.w3.org/2000/svg" width="40" height="40" fill="none"><defs/><path fill="#3A3A3A" d="M37.9 14.2c-.6-1.7-.3-4.1-1.7-6-1.4-2-3.8-2.5-5.2-3.5-1.3-1-2.6-3-4.8-3.8C24 .2 21.7 1 20 1c-1.7 0-4-1-6.2-.2-2.2.7-3.5 2.9-4.8 3.8-1.4 1-3.8 1.6-5.2 3.5-1.4 1.9-1.1 4.3-1.7 6C1.6 15.7 0 17.6 0 20s1.6 4.3 2.1 5.8c.6 1.7.3 4.1 1.7 6 1.4 2 3.8 2.5 5.2 3.5 1.3 1 2.6 3 4.8 3.8 2.2.7 4.5-.2 6.2-.2 1.7 0 4 1 6.2.2 2.2-.7 3.5-2.9 4.8-3.8 1.4-1 3.8-1.6 5.2-3.5 1.4-1.9 1.1-4.3 1.7-6 .5-1.5 2.1-3.4 2.1-5.8s-1.6-4.3-2.1-5.8zm-3 10.7c-.6 1.9-.5 4-1.2 5-.8 1.2-3 1.7-4.5 2.8-1.6 1.2-2.7 3-4 3.4-1.2.4-3.2-.4-5.2-.4s-4 .8-5.2.4c-1.3-.4-2.4-2.2-4-3.4-1.6-1.1-3.7-1.6-4.5-2.7-.7-1.1-.6-3.2-1.2-5.1-.6-1.9-2-3.5-2-4.9 0-1.4 1.4-3 2-4.9.6-1.9.5-4 1.2-5 .8-1.2 3-1.7 4.5-2.8 1.6-1.2 2.7-3 4-3.4 1.2-.4 3.2.4 5.2.4s4-.8 5.2-.4c1.3.4 2.4 2.2 4 3.4 1.6 1.1 3.7 1.6 4.5 2.7.7 1.1.6 3.2 1.2 5.1.6 1.9 2 3.5 2 4.9 0 1.4-1.4 3-2 4.9zm-7.7-10c.6.7.6 1.7 0 2.3L19.4 25c-.6.6-1.6.6-2.2 0l-4.4-4.4a1.6 1.6 0 112.2-2.2l3.3 3.3L25 15c.6-.6 1.6-.6 2.2 0z"/></svg>